<?xml version="1.0" encoding="utf-8"?>
<!-- Generator: Adobe Illustrator 16.0.0, SVG Export Plug-In . SVG Version: 6.00 Build 0)  -->
<!DOCTYPE svg PUBLIC "-//W3C//DTD SVG 1.1//EN" "http://www.w3.org/Graphics/SVG/1.1/DTD/svg11.dtd">
<svg version="1.1" xmlns="http://www.w3.org/2000/svg" xmlns:xlink="http://www.w3.org/1999/xlink" x="0px" y="0px" width="920px"
	 height="1097px" viewBox="0 0 920 1097" enable-background="new 0 0 920 1097" xml:space="preserve">
<g id="Layer_2_1_">
	<g id="Layer_1_1_">
		
			<image overflow="visible" enable-background="new    " width="920" height="1097" xlink:href="risk_board.jpg"  transform="matrix(1 0 0 1 2.440214e-004 0)">
		</image>
	</g>
</g>
<g id="Layer_1">
	<rect x="20" y="502" fill="#77A319" width="880" height="46.5"/>
	<text transform="matrix(1 0 0 1 92.9988 455.1484)" font-family="'MyriadPro-Bold'" font-size="58.9676">13</text>
	<text transform="matrix(1 0 0 1 92.9988 455.1484)" font-family="'MyriadPro-Bold'" font-size="58.9676">13</text>
	<text transform="matrix(1 0 0 1 758.9983 455.1484)" font-family="'MyriadPro-Bold'" font-size="58.9676">13</text>
	<rect x="20.5" y="410" fill="none" stroke="#DBED35" stroke-miterlimit="10" width="43" height="53"/>
	<rect x="178.5" y="410" fill="none" stroke="#DBED35" stroke-miterlimit="10" width="43" height="53"/>
	<rect x="681.5" y="410" fill="none" stroke="#DBED35" stroke-miterlimit="10" width="43" height="53"/>
	<rect x="837.5" y="410" fill="none" stroke="#DBED35" stroke-miterlimit="10" width="43" height="53"/>
	<rect x="460" y="502" fill="#811104" width="440" height="46.5"/>
	<text transform="matrix(1 0 0 1 763.6643 540.8149)" fill="#FFFFFF" font-family="'MyriadPro-Bold'" font-size="48">19.2%</text>
	<text transform="matrix(1 0 0 1 29.9983 540.8149)" fill="#FFFFFF" font-family="'MyriadPro-Bold'" font-size="48">22.2%</text>
	<rect x="60.79" y="580.823" fill="#77A319" width="119.21" height="26"/>
	<rect x="20.125" y="580.823" width="40.665" height="26"/>
	<text transform="matrix(1 0 0 1 40.4578 603.6055)" fill="#FFFFFF" font-family="'MyriadPro-Regular'" font-size="29.6177">0</text>
	<text transform="matrix(1 0 0 1 187.0002 603.6055)" font-family="'MyriadPro-Regular'" font-size="29.6177">13%</text>
	<text transform="matrix(1 0 0 1 237.7903 634.6055)" font-family="'MyriadPro-Regular'" font-size="29.6177">13%</text>
	<text transform="matrix(1 0 0 1 190.7903 669.6055)" font-family="'MyriadPro-Regular'" font-size="29.6177">13%</text>
	<text transform="matrix(1 0 0 1 153.2903 702.6055)" font-family="'MyriadPro-Regular'" font-size="29.6177">13%</text>
	<text transform="matrix(1 0 0 1 123.8953 735.6055)" font-family="'MyriadPro-Regular'" font-size="29.6177">13%</text>
	<text transform="matrix(1 0 0 1 102.3953 768.6055)" font-family="'MyriadPro-Regular'" font-size="29.6177">13%</text>
	<text transform="matrix(1 0 0 1 677.8948 603.6055)" font-family="'MyriadPro-Regular'" font-size="29.6177">13%</text>
	<text transform="matrix(1 0 0 1 624.8948 636.6055)" font-family="'MyriadPro-Regular'" font-size="29.6177">13%</text>
	<text transform="matrix(1 0 0 1 668.8948 669.6055)" font-family="'MyriadPro-Regular'" font-size="29.6177">13%</text>
	<text transform="matrix(1 0 0 1 710.3948 702.6055)" font-family="'MyriadPro-Regular'" font-size="29.6177">13%</text>
	<text transform="matrix(1 0 0 1 732.8948 735.6055)" font-family="'MyriadPro-Regular'" font-size="29.6177">13%</text>
	<text transform="matrix(1 0 0 1 755.3948 768.6055)" font-family="'MyriadPro-Regular'" font-size="29.6177">13%</text>
	<rect x="60.79" y="613.823" fill="#77A319" width="176" height="26"/>
	<rect x="20.125" y="613.823" width="40.665" height="26"/>
	<text transform="matrix(1 0 0 1 40.4578 636.6055)" fill="#FFFFFF" font-family="'MyriadPro-Regular'" font-size="29.6177">1</text>
	<rect x="60.79" y="646.823" fill="#77A319" width="126.21" height="26"/>
	<rect x="20.125" y="646.823" width="40.665" height="26"/>
	<text transform="matrix(1 0 0 1 40.4578 669.6055)" fill="#FFFFFF" font-family="'MyriadPro-Regular'" font-size="29.6177">2</text>
	<rect x="60.79" y="679.823" fill="#77A319" width="88" height="26"/>
	<rect x="20.125" y="679.823" width="40.665" height="26"/>
	<text transform="matrix(1 0 0 1 40.4578 702.6055)" fill="#FFFFFF" font-family="'MyriadPro-Regular'" font-size="29.6177">3</text>
	<rect x="60.79" y="712.823" fill="#77A319" width="59.605" height="26"/>
	<rect x="20.125" y="712.823" width="40.665" height="26"/>
	<text transform="matrix(1 0 0 1 40.4578 735.6055)" fill="#FFFFFF" font-family="'MyriadPro-Regular'" font-size="29.6177">4</text>
	<rect x="60.79" y="745.823" fill="#77A319" width="36.21" height="26"/>
	<rect x="20" y="801.157" fill="#77A319" width="109.167" height="77.176"/>
	<rect x="20.125" y="745.823" width="40.665" height="26"/>
	<text transform="matrix(1 0 0 1 40.4578 768.6055)" fill="#FFFFFF" font-family="'MyriadPro-Regular'" font-size="29.6177">5</text>
	<rect x="736.789" y="580.823" fill="#811104" width="119.21" height="26"/>
	<rect x="855.999" y="580.823" width="40.665" height="26"/>
	<text transform="matrix(1 0 0 1 876.3323 603.6055)" fill="#FFFFFF" font-family="'MyriadPro-Regular'" font-size="29.6177">0</text>
	<rect x="679.999" y="613.823" fill="#811104" width="176" height="26"/>
	<rect x="855.999" y="613.823" width="40.665" height="26"/>
	<text transform="matrix(1 0 0 1 876.3323 636.6055)" fill="#FFFFFF" font-family="'MyriadPro-Regular'" font-size="29.6177">1</text>
	<rect x="729.789" y="646.823" fill="#811104" width="126.21" height="26"/>
	<rect x="855.999" y="646.823" width="40.665" height="26"/>
	<text transform="matrix(1 0 0 1 876.3323 669.6055)" fill="#FFFFFF" font-family="'MyriadPro-Regular'" font-size="29.6177">2</text>
	<rect x="767.999" y="679.823" fill="#811104" width="88" height="26"/>
	<rect x="856" y="679.823" width="40.665" height="26"/>
	<text transform="matrix(1 0 0 1 876.3323 702.6055)" fill="#FFFFFF" font-family="'MyriadPro-Regular'" font-size="29.6177">3</text>
	<rect x="796.395" y="712.823" fill="#811104" width="59.604" height="26"/>
	<rect x="855.999" y="712.823" width="40.665" height="26"/>
	<text transform="matrix(1 0 0 1 876.3323 735.6055)" fill="#FFFFFF" font-family="'MyriadPro-Regular'" font-size="29.6177">4</text>
	<rect x="819.789" y="745.823" fill="#811104" width="36.21" height="26"/>
	<rect x="855.999" y="745.823" width="40.665" height="26"/>
	<text transform="matrix(1 0 0 1 876.3323 768.6055)" fill="#FFFFFF" font-family="'MyriadPro-Regular'" font-size="29.6177">5</text>
	<text transform="matrix(1 0 0 1 35.9983 855.4814)" fill="#FFFFFF" font-family="'MyriadPro-Bold'" font-size="48">7.8</text>
</g>
</svg>
